<?xml version="1.0" encoding="utf-8"?>
<!-- Generator: Adobe Illustrator 24.1.0, SVG Export Plug-In . SVG Version: 6.00 Build 0)  -->
<svg version="1.1" id="Layer_1" xmlns="http://www.w3.org/2000/svg" xmlns:xlink="http://www.w3.org/1999/xlink" x="0px" y="0px"
	 viewBox="0 0 72 72" style="enable-background:new 0 0 72 72;" xml:space="preserve">
<style type="text/css">
	.st0{fill-rule:evenodd;clip-rule:evenodd;fill:#FD5800;}
</style>
<path class="st0" d="M36,0C16.1,0,0,16.5,0,36.9c0,16.3,10.3,30.1,24.6,35c1.8,0.3,2.5-0.8,2.5-1.8c0-0.9,0-3.2,0-6.3
	C17.1,66,15,58.9,15,58.9c-1.6-4.3-4-5.4-4-5.4c-3.3-2.3,0.2-2.2,0.2-2.2c3.6,0.3,5.5,3.8,5.5,3.8c3.2,5.6,8.4,4,10.5,3.1
	c0.3-2.4,1.3-4,2.3-4.9C21.4,52.3,13,49.1,13,35c0-4,1.4-7.3,3.7-9.9c-0.4-0.9-1.6-4.7,0.4-9.8c0,0,3-1,9.9,3.8c2.9-0.8,6-1.2,9-1.2
	c3.1,0,6.1,0.4,9,1.2c6.9-4.8,9.9-3.8,9.9-3.8c2,5.1,0.7,8.8,0.4,9.8C57.6,27.7,59,31,59,35c0,14.2-8.4,17.3-16.4,18.2
	c1.3,1.1,2.4,3.4,2.4,6.8c0,4.9,0,8.9,0,10.1c0,1,0.6,2.1,2.5,1.8C61.7,67,72,53.2,72,36.9C72,16.5,55.9,0,36,0z"/>
</svg>
