<?xml version="1.0" encoding="utf-8"?>
<!-- Generator: Adobe Illustrator 24.1.0, SVG Export Plug-In . SVG Version: 6.00 Build 0)  -->
<svg version="1.1" id="Layer_1" xmlns="http://www.w3.org/2000/svg" xmlns:xlink="http://www.w3.org/1999/xlink" x="0px" y="0px"
	 viewBox="0 0 72 72" style="enable-background:new 0 0 72 72;" xml:space="preserve">
<style type="text/css">
	.st0{fill:#FD5800;}
</style>
<path class="st0" d="M36,0C16.1,0,0,16.1,0,36s16.1,36,36,36s36-16.1,36-36S55.9,0,36,0z M35,48.6L35,48.6L35,48.6L35,48.6
	c-0.2,0-0.3,0-0.5,0c-5.1,0-10.3,0-15.4,0c-1.3,0-2.7,0-4,0l0,0l0,0l0,0c-0.1-0.1-0.1-0.1-0.2-0.1l0,0l0,0l0,0
	c0-0.1-0.2-0.2-0.2-0.2l0,0l-0.1-0.1l0,0c-0.1-0.2-0.1-0.5-0.1-0.7c0-7.5,0-14.9,0-22.4c0-0.4,0-0.7,0.1-1.1l0,0l0,0l0,0
	c0.1,0,0.1-0.1,0.1-0.1l0,0l0,0l0,0c0.1-0.1,0.1-0.2,0.2-0.2l0,0c0.3-0.1,0.5-0.2,0.8-0.2c3,0,6.1,0,9.1,0c0.9,0,1.8,0.1,2.7,0.3
	c1.2,0.3,2.2,0.8,3.2,1.4l0,0c0.1,0.1,0.3,0.3,0.4,0.4l0,0c0.1,0.1,0.2,0.3,0.4,0.4l0,0c1.6,1.8,2.1,4,2,6.3c0,0.2-0.2,0.4,0,0.6
	c0,0.1-0.1,0.2-0.1,0.3c-0.1,0-0.1,0.1-0.1,0.1c-0.2,1.1-0.6,2.1-1.3,3.1l0,0c0,0,0,0.1-0.1,0.1l0,0l0,0l0,0c-0.3,0.3-0.6,0.7-0.9,1
	l0,0c-0.1,0.1-0.3,0.2-0.3,0.3l0,0l0,0l0,0c-0.5,0.3-1,0.7-1.6,0.9c-0.2,0.1-0.1,0.2,0,0.3c0.6,0.7,1.1,1.5,1.7,2.2
	c0.3,0.4,0.6,0.9,1,1.2l0,0c0.2,0.3,0.4,0.6,0.7,0.9c0.9,1.2,1.9,2.4,2.8,3.7C35.8,47.6,35.7,48.1,35,48.6z M57.6,42.2
	c0,0.2-0.1,0.3-0.1,0.5c-0.2,0.7-0.4,1.4-0.7,2c-0.4,0.8-1.1,1.5-1.8,2.1l0,0c-0.4,0.2-0.8,0.5-1.3,0.7c-1.6,0.7-3.2,1-4.9,1.1
	c-3,0-6,0-9,0c-0.5,0-0.9,0-1.4-0.1c-0.1-0.1-0.1-0.1-0.2-0.2c0-0.1,0-0.2-0.1-0.2l0,0l0,0l0,0C38,47.9,38,47.7,38,47.5
	c0-7.7,0-15.4,0-23.1c0-0.7,0.3-1.1,1-1.1c2.9,0,5.8,0,8.7,0c2.2,0,4.2,0.4,5.8,2l0,0c0,0,0,0,0.1,0.1l0,0c0,0,0,0.1,0.1,0.1l0,0
	c1.3,1.5,1.7,3.3,1.6,5.3c0,0.5-0.1,1-0.1,1.5v0.1c-0.2,0.6-0.4,1.2-0.8,1.8l0,0c-0.1,0.1-0.2,0.3-0.3,0.4l0,0
	c-0.3,0.2-0.3,0.3,0,0.4c0.3,0.1,0.5,0.3,0.7,0.4c1.5,1,2.3,2.6,2.5,4.4C57.6,40.5,57.6,41.4,57.6,42.2z"/>
</svg>
